<?xml version="1.0" encoding="utf-8"?>
<!-- Generator: Adobe Illustrator 28.0.0, SVG Export Plug-In . SVG Version: 6.00 Build 0)  -->
<svg version="1.1" id="Layer_1" xmlns="http://www.w3.org/2000/svg" xmlns:xlink="http://www.w3.org/1999/xlink" x="0px" y="0px"
	 viewBox="0 0 118.3 40.4" style="enable-background:new 0 0 118.3 40.4;" xml:space="preserve">
<style type="text/css">
	.st0{fill:none;}
	.st1{fill:#FFFFFF;}
	.st2{fill:#1E1E1C;}
</style>
<g>
	<g>
		<rect x="0" y="0.4" class="st0" width="118" height="39.7"/>
	</g>
	<g>
		<g>
			<g>
				<circle class="st1" cx="20.2" cy="20.2" r="19.8"/>
				<path class="st2" d="M20.2,40.4C9.1,40.4,0,31.3,0,20.2S9.1,0,20.2,0c11.2,0,20.2,9.1,20.2,20.2C40.4,31.4,31.4,40.4,20.2,40.4z
					 M20.2,0.7C9.5,0.7,0.7,9.4,0.7,20.2c0,10.7,8.7,19.5,19.5,19.5c10.7,0,19.5-8.7,19.5-19.5C39.7,9.5,31,0.7,20.2,0.7z"/>
			</g>
			<g>
				<path d="M9.9,9.7v14.1c0,5.7,4.6,10.3,10.3,10.3s10.3-4.6,10.3-10.3V9.7H9.9z M11.6,26.2l1.3-2.2l1.3,2.2H11.6z M15.9,26.2
					l-2.2-3.7l1-1.7l3.1,5.5L15.9,26.2L15.9,26.2z M19.6,26.2l-4-6.9l1-1.7l4.9,8.6H19.6z M23.3,26.2l-5.9-10.1l1-1.7l6.7,11.8
					C25.1,26.2,23.3,26.2,23.3,26.2z M26.9,26.2L19.3,13l1-1.7l8.6,14.9H26.9z"/>
			</g>
		</g>
		<g>
			<g>
				<g>
					<path d="M49.8,19.8h1.7c2.7,0,3.1-1.6,3.1-5.8s-0.3-5.8-3.1-5.8h-1.7V19.8z M52.1,5.3c4.7,0,6.1,2.5,6.1,8.8s-1.5,8.8-6.1,8.8
						h-6V5.3H52.1z M60.2,5.3h9.5v3h-5.8v3.8h5.3v3.1h-5.3v4.6h5.8v3.1h-9.5V5.3z M79.8,15.9L78,8.6l-1.8,7.3H79.8z M80.5,19h-5.1
						l-0.9,3.9h-3.7l5-17.6h4.7l4.9,17.6h-3.9L80.5,19z M86.5,5.3h3.7v7.6l4.6-7.6h3.8l-5.1,8.1l5.1,9.5h-4.2l-4.1-8.5v8.5h-3.7V5.3
						H86.5z M100.2,5.3h3.6v17.6h-3.6V5.3z M109.3,11.4v11.5h-3.2V5.3h4.4l4.2,10.8V5.3h3.2v17.6h-4L109.3,11.4z"/>
				</g>
			</g>
			<g>
				<path d="M51.7,32.5v-6c0-0.1,0-0.1,0.1-0.1s0.2-0.1,0.3-0.1c0.1,0,0.3,0,0.4-0.1s0.2,0,0.3,0c0.1,0,0.2,0,0.3,0.1
					c0.1,0.1,0.1,0.2,0.1,0.3v6c0,0.7-0.1,1.2-0.2,1.6c-0.1,0.4-0.4,0.8-0.7,1.1c-0.3,0.3-0.7,0.5-1.1,0.6s-1,0.2-1.6,0.2h-0.1
					c-0.6,0-1.1-0.1-1.5-0.2c-0.4-0.1-0.8-0.3-1.1-0.6c-0.3-0.3-0.5-0.6-0.7-1.1c-0.1-0.4-0.2-1-0.2-1.6v-6.1c0-0.1,0-0.1,0.1-0.1
					s0.2-0.1,0.3-0.1c0.1,0,0.3,0,0.4-0.1c0.1,0,0.2,0,0.3,0c0.1,0,0.2,0,0.3,0.1c0.1,0.1,0.1,0.2,0.1,0.3v5.9c0,0.4,0,0.7,0.1,1
					s0.2,0.5,0.3,0.7c0.1,0.2,0.3,0.3,0.6,0.4c0.2,0.1,0.6,0.1,0.9,0.1h0.1c0.4,0,0.7,0,1-0.1s0.5-0.2,0.6-0.4
					c0.2-0.2,0.3-0.4,0.3-0.7C51.7,33.2,51.7,32.9,51.7,32.5z"/>
				<path d="M60.9,33.1v-6.7c0-0.1,0-0.1,0.1-0.1s0.2-0.1,0.3-0.1c0.1,0,0.3,0,0.4,0s0.2,0,0.3,0c0.2,0,0.3,0.1,0.3,0.4v9.1
					c0,0.1,0,0.2-0.1,0.3s-0.2,0.1-0.3,0.1c-0.1,0-0.2,0-0.3,0c-0.1,0-0.2,0-0.4,0c-0.1,0-0.2,0-0.3-0.1s-0.2-0.1-0.2-0.1l-4.3-6.7
					v6.5c0,0.1,0,0.2-0.1,0.3s-0.2,0.1-0.3,0.1c-0.1,0-0.2,0-0.3,0c-0.1,0-0.3,0-0.4,0s-0.2,0-0.3-0.1c-0.1,0-0.1-0.1-0.1-0.1v-9.3
					c0-0.1,0-0.1,0.1-0.1s0.2-0.1,0.3-0.1c0.1,0,0.3,0,0.4,0s0.2,0,0.3,0c0.1,0,0.2,0,0.2,0.1c0.1,0.1,0.1,0.1,0.2,0.2L60.9,33.1z"
					/>
				<path d="M65.8,35.7c0,0.1,0,0.2-0.1,0.3s-0.2,0.1-0.3,0.1c-0.1,0-0.2,0-0.3,0c-0.1,0-0.3,0-0.4,0s-0.2,0-0.3-0.1
					c-0.1,0-0.1-0.1-0.1-0.1v-9.3c0-0.1,0-0.1,0.1-0.1s0.2-0.1,0.3-0.1c0.1,0,0.3,0,0.4,0s0.2,0,0.3,0c0.1,0,0.2,0,0.3,0.1
					c0.1,0.1,0.1,0.2,0.1,0.3V35.7z"/>
				<path d="M70.9,33.4l2-6.9c0.1-0.1,0.3-0.2,0.4-0.2c0.2,0,0.4,0,0.6,0c0.1,0,0.2,0,0.3,0c0.1,0,0.2,0,0.2,0.1
					c0.1,0,0.1,0.1,0.1,0.1c0,0.1,0,0.1,0,0.2l-3.1,9.2c0,0.1-0.1,0.1-0.1,0.2c-0.1,0-0.2,0.1-0.2,0.1c-0.3,0-0.5,0-0.7,0
					S70.1,36.1,70,36l-3.1-9.2c0-0.1,0-0.2,0-0.2c0-0.1,0.1-0.1,0.1-0.1c0.1,0,0.1-0.1,0.2-0.1s0.1,0,0.2,0s0.3,0,0.4,0s0.3,0,0.4,0
					s0.2,0.1,0.3,0.1c0.1,0,0.1,0.1,0.2,0.2l2,6.8c0,0.1,0.1,0.2,0.1,0.3s0,0.2,0,0.3c0-0.1,0-0.2,0-0.3
					C70.9,33.6,70.9,33.5,70.9,33.4z"/>
				<path d="M75.8,35.6v-9c0-0.1,0-0.2,0.1-0.3s0.2-0.1,0.3-0.1h5.3c0.1,0,0.2,0,0.2,0.1c0.1,0.1,0.1,0.2,0.1,0.3s0,0.2,0,0.3
					s0,0.2,0,0.3s0,0.2-0.1,0.3c0,0.1-0.1,0.1-0.1,0.1h-4.2v2.6H81c0.1,0,0.2,0,0.2,0.1c0.1,0.1,0.1,0.2,0.1,0.3s0,0.2,0,0.3
					s0,0.2,0,0.4c0,0.1,0,0.2-0.1,0.3c0,0.1-0.1,0.1-0.1,0.1h-3.7v2.7h4.2c0.1,0,0.2,0,0.2,0.1s0.1,0.2,0.1,0.3s0,0.2,0,0.3
					s0,0.2,0,0.3s0,0.2-0.1,0.3c0,0.1-0.1,0.1-0.1,0.1h-5.3c-0.1,0-0.3,0-0.4-0.1C75.9,35.8,75.8,35.7,75.8,35.6z"/>
				<path d="M83.6,35.8v-9.1c0-0.1,0-0.2,0.1-0.2c0.1-0.1,0.2-0.1,0.3-0.1h2.9c0.6,0,1.1,0,1.6,0.1c0.4,0.1,0.8,0.2,1.1,0.5
					c0.3,0.2,0.5,0.5,0.6,0.9s0.2,0.8,0.2,1.4v0.3c0,0.4,0,0.8-0.1,1.1s-0.2,0.6-0.3,0.8c-0.1,0.2-0.3,0.4-0.6,0.5
					c-0.2,0.1-0.5,0.2-0.8,0.3l1.8,3.2c0.1,0.2,0.1,0.3,0.1,0.4c0,0.1,0,0.1-0.1,0.1l-0.1,0.1c-0.1,0-0.1,0-0.2,0s-0.1,0-0.1,0
					c-0.1,0-0.2,0-0.3,0c-0.1,0-0.2,0-0.4,0S89.1,36,89,36c-0.1,0-0.2-0.1-0.2-0.2l-2-3.3h-1.6v3.3c0,0.1,0,0.2-0.1,0.3
					s-0.2,0.1-0.3,0.1c-0.1,0-0.2,0-0.3,0c-0.1,0-0.3,0-0.4,0s-0.2,0-0.3-0.1C83.6,35.9,83.6,35.8,83.6,35.8z M87,27.8h-1.8V31H87
					c0.4,0,0.7,0,0.9-0.1c0.2,0,0.4-0.1,0.5-0.2c0.1-0.1,0.2-0.3,0.2-0.4c0-0.2,0.1-0.4,0.1-0.7v-0.3c0-0.3,0-0.5-0.1-0.7
					c0-0.2-0.1-0.3-0.2-0.4c-0.1-0.1-0.3-0.2-0.5-0.2C87.7,27.8,87.4,27.8,87,27.8z"/>
				<path d="M92.1,34.4c0.1,0,0.2,0,0.3,0.1c0.1,0,0.3,0.1,0.5,0.1s0.4,0.1,0.6,0.1s0.5,0,0.7,0s0.5,0,0.7-0.1s0.4-0.1,0.6-0.2
					s0.3-0.2,0.4-0.4s0.2-0.3,0.2-0.6s-0.1-0.6-0.3-0.8c-0.2-0.2-0.5-0.4-0.8-0.6c-0.3-0.2-0.7-0.4-1-0.6c-0.4-0.2-0.7-0.4-1-0.7
					s-0.6-0.6-0.8-0.9c-0.2-0.4-0.3-0.8-0.3-1.3c0-0.4,0.1-0.8,0.2-1.1c0.2-0.3,0.4-0.5,0.6-0.7c0.3-0.2,0.6-0.3,1-0.4
					c0.4-0.1,0.8-0.1,1.3-0.1c0.1,0,0.2,0,0.4,0c0.2,0,0.4,0,0.6,0s0.4,0.1,0.7,0.1c0.2,0,0.4,0.1,0.5,0.1c0.1,0.1,0.2,0.1,0.2,0.2
					c0,0.1,0,0.2,0,0.3c0,0.2-0.1,0.4-0.1,0.6c-0.1,0.2-0.2,0.2-0.3,0.2c-0.2,0-0.5-0.1-0.8-0.1s-0.6-0.1-1-0.1
					c-0.6,0-1,0.1-1.3,0.2c-0.3,0.2-0.5,0.4-0.5,0.8c0,0.3,0.1,0.5,0.3,0.8c0.2,0.2,0.5,0.4,0.8,0.6c0.3,0.2,0.7,0.4,1,0.6
					c0.4,0.2,0.7,0.4,1,0.7s0.6,0.6,0.8,1c0.2,0.4,0.3,0.8,0.3,1.4c0,0.5-0.1,0.9-0.3,1.3c-0.2,0.3-0.4,0.6-0.8,0.8
					c-0.3,0.2-0.7,0.3-1.1,0.4c-0.4,0.1-0.8,0.1-1.3,0.1c-0.2,0-0.4,0-0.6,0s-0.4,0-0.7-0.1c-0.2,0-0.4-0.1-0.6-0.1
					s-0.4-0.1-0.5-0.1s-0.2-0.1-0.2-0.2c0-0.1,0-0.2,0-0.3c0-0.3,0.1-0.5,0.1-0.7C91.9,34.5,92,34.4,92.1,34.4z"/>
				<path d="M101.1,35.7c0,0.1,0,0.2-0.1,0.3s-0.2,0.1-0.3,0.1c-0.1,0-0.2,0-0.3,0c-0.1,0-0.3,0-0.4,0s-0.2,0-0.3-0.1
					c-0.1,0-0.1-0.1-0.1-0.1v-9.3c0-0.1,0-0.1,0.1-0.1s0.2-0.1,0.3-0.1c0.1,0,0.3,0,0.4,0s0.2,0,0.3,0c0.1,0,0.2,0,0.3,0.1
					c0.1,0.1,0.1,0.2,0.1,0.3V35.7z"/>
				<path d="M106.8,27.8v7.9c0,0.1,0,0.2-0.1,0.3s-0.2,0.1-0.3,0.1c-0.1,0-0.2,0-0.3,0s-0.3,0-0.4,0s-0.2,0-0.3-0.1
					c-0.1,0-0.1-0.1-0.1-0.1v-8h-2.4c-0.1,0-0.2,0-0.2-0.1c-0.1-0.1-0.1-0.2-0.1-0.3s0-0.2,0-0.3s0-0.2,0-0.3s0-0.2,0.1-0.3
					c0-0.1,0.1-0.1,0.1-0.1h6.6c0.1,0,0.2,0,0.2,0.1c0.1,0.1,0.1,0.2,0.1,0.3s0,0.2,0,0.3s0,0.2,0,0.3s0,0.2-0.1,0.3
					c0,0.1-0.1,0.1-0.1,0.1h-2.7V27.8z"/>
				<path d="M115.2,32.4v3.3c0,0.1,0,0.2-0.1,0.3s-0.2,0.1-0.3,0.1s-0.2,0-0.3,0s-0.3,0-0.4,0c-0.1,0-0.2,0-0.3-0.1
					c-0.1,0-0.1-0.1-0.1-0.1v-3.4l-2.9-5.7c-0.1-0.2-0.1-0.3,0-0.4c0.1-0.1,0.2-0.1,0.4-0.1c0.1,0,0.2,0,0.4,0c0.1,0,0.2,0,0.4,0
					c0.1,0,0.2,0,0.3,0.1c0.1,0,0.1,0.1,0.2,0.1l1.9,4.3l2.1-4.3c0-0.1,0.1-0.1,0.2-0.1c0.1,0,0.2-0.1,0.3-0.1s0.2,0,0.4,0
					c0.1,0,0.3,0,0.4,0c0.2,0,0.3,0,0.4,0.1c0.1,0.1,0.1,0.2,0,0.4L115.2,32.4z"/>
			</g>
		</g>
	</g>
</g>
</svg>
